<svg width="41" height="49" viewBox="0 0 41 49" fill="none" xmlns="http://www.w3.org/2000/svg">
<path d="M25.8901 48.0544C27.4923 48.0544 28.8896 46.6608 28.8896 45.0627V38.0759H30.8924C32.0942 38.0759 32.8951 37.2767 32.8951 36.0783V16.123H8.88086V36.0785C8.88086 37.277 9.68201 38.0761 10.8836 38.0761H12.8866V45.0629C12.8866 46.661 14.2835 48.0546 15.8861 48.0546C17.4881 48.0546 18.8852 46.661 18.8852 45.0629V38.0761H22.8909V45.0629C22.8907 46.6608 24.2879 48.0544 25.8901 48.0544Z" fill="#A6D864"/>
<path d="M37.8974 36.0786C39.4996 36.0786 40.8966 34.6852 40.8966 33.0869V19.1134C40.8966 17.5238 39.4997 16.123 37.8974 16.123C36.295 16.123 34.8979 17.5239 34.8979 19.1134V33.0869C34.8979 34.685 36.2949 36.0786 37.8974 36.0786Z" fill="#A6D864"/>
<path d="M3.87855 36.0786C5.48094 36.0786 6.87799 34.6852 6.87799 33.0869V19.1134C6.87799 17.5238 5.48113 16.123 3.87855 16.123C2.27635 16.123 0.879395 17.5239 0.879395 19.1134V33.0869C0.879488 34.685 2.27635 36.0786 3.87855 36.0786Z" fill="#A6D864"/>
<path d="M30.4915 0.561167C30.0911 0.159298 29.495 0.159298 29.0946 0.561167L26.4084 3.23143L26.2845 3.35483C24.6918 2.55931 22.9059 2.16202 20.9173 2.15819C20.9075 2.15819 20.8979 2.15791 20.8882 2.15791H20.8879C20.8778 2.15791 20.8685 2.15819 20.8585 2.15819C18.87 2.16202 17.0842 2.55931 15.4916 3.35483L15.3674 3.23143L12.6812 0.561167C12.2805 0.159298 11.6847 0.159298 11.2843 0.561167C10.8836 0.960796 10.8836 1.55394 11.2843 1.95329L13.8827 4.54541C13.0454 5.10299 12.2862 5.78528 11.626 6.56568C10.0454 8.43434 9.03716 10.8664 8.89855 13.5014C8.89724 13.5289 8.89452 13.556 8.89331 13.5834C8.88479 13.7628 8.88086 13.9432 8.88086 14.1243H32.895C32.895 13.9433 32.8907 13.7629 32.8826 13.5834C32.8813 13.556 32.8785 13.5289 32.877 13.5014C32.7386 10.8664 31.7302 8.43425 30.1495 6.56586C29.4896 5.78546 28.7301 5.10317 27.8928 4.5456L30.4915 1.95347C30.8922 1.55394 30.8922 0.960889 30.4915 0.561167ZM15.8821 10.6365C15.0535 10.6365 14.3817 9.96649 14.3817 9.13997C14.3817 8.31346 15.0535 7.64349 15.8821 7.64349C16.7107 7.64349 17.3825 8.31346 17.3825 9.13997C17.3825 9.96649 16.7107 10.6365 15.8821 10.6365ZM25.8937 10.6365C25.0651 10.6365 24.3933 9.96649 24.3933 9.13997C24.3933 8.31346 25.065 7.64349 25.8937 7.64349C26.7222 7.64349 27.394 8.31346 27.394 9.13997C27.394 9.96649 26.7223 10.6365 25.8937 10.6365Z" fill="#A6D864"/>
</svg>
