<svg width="41" height="26" viewBox="0 0 41 26" fill="none" xmlns="http://www.w3.org/2000/svg">
<path d="M35.4373 19.3932V21.0562C35.4373 22.8937 33.945 24.3821 32.1027 24.3821H4.59239C2.75004 24.3821 1.25781 22.8937 1.25781 21.0562V5.25805C1.25781 3.42048 2.75004 1.93213 4.59239 1.93213H32.1027C33.945 1.93213 35.4373 3.42048 35.4373 5.25805V6.92101H37.1046C38.0249 6.92101 38.7719 7.66601 38.7719 8.58397V17.7302C38.7719 18.6482 38.0249 19.3932 37.1046 19.3932H35.4373Z" fill="#FAFAFA"/>
<path d="M6.25964 20.6404C5.56937 20.6404 5.00916 20.0816 5.00916 19.3932V6.92104C5.00916 6.23258 5.56937 5.67383 6.25964 5.67383C6.94991 5.67383 7.51013 6.23258 7.51013 6.92104V19.3932C7.51013 20.0816 6.94991 20.6404 6.25964 20.6404Z" fill="black"/>
<path d="M11.2615 20.6404C10.5713 20.6404 10.0111 20.0816 10.0111 19.3932V6.92104C10.0111 6.23258 10.5713 5.67383 11.2615 5.67383C11.9518 5.67383 12.512 6.23258 12.512 6.92104V19.3932C12.512 20.0816 11.9518 20.6404 11.2615 20.6404Z" fill="black"/>
<path d="M16.2634 20.6404C15.5732 20.6404 15.0129 20.0816 15.0129 19.3932V6.92104C15.0129 6.23258 15.5732 5.67383 16.2634 5.67383C16.9537 5.67383 17.5139 6.23258 17.5139 6.92104V19.3932C17.5139 20.0816 16.9537 20.6404 16.2634 20.6404Z" fill="black"/>
<path d="M21.2653 20.6404C20.575 20.6404 20.0148 20.0816 20.0148 19.3932V6.92104C20.0148 6.23258 20.575 5.67383 21.2653 5.67383C21.9555 5.67383 22.5157 6.23258 22.5157 6.92104V19.3932C22.5157 20.0816 21.9555 20.6404 21.2653 20.6404Z" fill="black"/>
<path d="M26.2672 20.6404C25.5769 20.6404 25.0167 20.0816 25.0167 19.3932V6.92104C25.0167 6.23258 25.5769 5.67383 26.2672 5.67383C26.9575 5.67383 27.5177 6.23258 27.5177 6.92104V19.3932C27.5177 20.0816 26.9575 20.6404 26.2672 20.6404Z" fill="black"/>
<path d="M31.269 20.6404C30.5788 20.6404 30.0186 20.0816 30.0186 19.3932V6.92104C30.0186 6.23258 30.5788 5.67383 31.269 5.67383C31.9593 5.67383 32.5195 6.23258 32.5195 6.92104V19.3932C32.5195 20.0816 31.9593 20.6404 31.269 20.6404Z" fill="black"/>
<path d="M32.1027 25.6295H4.59238C2.06476 25.6295 0.00732422 23.5791 0.00732422 21.0564V5.25821C0.00732422 2.73549 2.06476 0.685059 4.59238 0.685059H32.1027C34.6303 0.685059 36.6877 2.73549 36.6877 5.25821V5.67395H37.0896C38.6985 5.67395 40.0073 6.97938 40.0073 8.58414V17.7304C40.0073 19.3352 38.6985 20.6406 37.0896 20.6406H36.6877V21.0564C36.6877 23.5791 34.6303 25.6295 32.1027 25.6295ZM4.59238 3.1795C3.44361 3.1795 2.50826 4.11243 2.50826 5.25821V21.0564C2.50826 22.2021 3.44361 23.1351 4.59238 23.1351H32.1027C33.2515 23.1351 34.1868 22.2021 34.1868 21.0564V19.3934C34.1868 18.7049 34.747 18.1462 35.4373 18.1462H37.0896C37.3196 18.1462 37.5064 17.9599 37.5064 17.7304V8.58414C37.5064 8.35465 37.3196 8.1684 37.0896 8.1684H35.4373C34.747 8.1684 34.1868 7.60964 34.1868 6.92117V5.25821C34.1868 4.11243 33.2515 3.1795 32.1027 3.1795H4.59238Z" fill="black"/>
</svg>
