<svg width="164" height="165" viewBox="0 0 164 165" fill="none" xmlns="http://www.w3.org/2000/svg">
<path d="M120.97 39.7653C109.657 29.428 94.7019 24.0078 79.3932 24.6973C64.0845 25.3868 49.6767 32.1293 39.3394 43.4417C29.002 54.7541 23.5819 69.7097 24.2713 85.0184C24.9608 100.327 31.7034 114.735 43.0158 125.072L44.3848 123.574C33.4697 113.6 26.964 99.6981 26.2987 84.9271C25.6335 70.1561 30.8632 55.7258 40.8375 44.8108C50.8118 33.8957 64.7135 27.3899 79.4845 26.7247C94.2555 26.0594 108.686 31.2892 119.601 41.2635L120.97 39.7653Z" fill="#E0E8E6"/>
<circle cx="120.547" cy="40.4191" r="2.39961" fill="#C4C4C4"/>
<circle cx="43.2749" cy="124.032" r="2.39961" fill="#C4C4C4"/>
</svg>
