<svg width="16" height="20" viewBox="0 0 16 20" fill="none" xmlns="http://www.w3.org/2000/svg">
<path d="M5.20131 19.3138C2.42656 19.2978 0.131348 13.6336 0.131348 10.749C0.131348 6.03691 3.66619 5.00531 5.02849 5.00531C5.64242 5.00531 6.29798 5.24641 6.87619 5.45975C7.28052 5.60858 7.6987 5.76221 7.93127 5.76221C8.07048 5.76221 8.39853 5.63152 8.68816 5.51685C9.30584 5.27095 10.0745 4.96533 10.9695 4.96533C10.9711 4.96533 10.9733 4.96533 10.9748 4.96533C11.6432 4.96533 13.6696 5.11201 14.8879 6.94157L15.1732 7.37041L14.7625 7.68032C14.1758 8.12304 13.1052 8.93062 13.1052 10.5303C13.1052 12.4249 14.3177 13.1536 14.9001 13.504C15.1572 13.6587 15.4234 13.8182 15.4234 14.167C15.4234 14.3948 13.6055 19.2855 10.9658 19.2855C10.3198 19.2855 9.86322 19.0914 9.46049 18.9202C9.05299 18.7468 8.70145 18.5975 8.12058 18.5975C7.82614 18.5975 7.45381 18.7367 7.05964 18.8844C6.52097 19.0855 5.91126 19.3138 5.21944 19.3138H5.20131Z" fill="#1617DB"/>
<path d="M11.2491 0.669922C11.3179 3.14881 9.54511 4.86855 7.77439 4.76069C7.48261 2.78245 9.54489 0.669922 11.2491 0.669922Z" fill="#1617DB"/>
</svg>
