<svg width="17" height="20" viewBox="0 0 17 20" fill="none" xmlns="http://www.w3.org/2000/svg">
<path d="M5.81801 19.0643C3.04326 19.0483 0.748047 13.3841 0.748047 10.4995C0.748047 5.7874 4.28289 4.7558 5.64519 4.7558C6.25912 4.7558 6.91468 4.9969 7.49289 5.21024C7.89722 5.35906 8.31539 5.51269 8.54797 5.51269C8.68718 5.51269 9.01522 5.38201 9.30486 5.26734C9.92254 5.02144 10.6912 4.71582 11.5862 4.71582C11.5878 4.71582 11.59 4.71582 11.5915 4.71582C12.2599 4.71582 14.2863 4.86249 15.5045 6.69205L15.7899 7.1209L15.3792 7.43081C14.7925 7.87353 13.7219 8.68111 13.7219 10.2808C13.7219 12.1754 14.9344 12.9041 15.5168 13.2545C15.7739 13.4092 16.0401 13.5687 16.0401 13.9175C16.0401 14.1453 14.2222 19.036 11.5825 19.036C10.9365 19.036 10.4799 18.8419 10.0772 18.6706C9.66968 18.4973 9.31815 18.3479 8.73728 18.3479C8.44284 18.3479 8.07051 18.4872 7.67634 18.6349C7.13767 18.836 6.52796 19.0643 5.83614 19.0643H5.81801Z" fill="#6565EC"/>
<path d="M11.8658 0.42041C11.9346 2.8993 10.1618 4.61903 8.39109 4.51118C8.09931 2.53294 10.1616 0.42041 11.8658 0.42041Z" fill="#6565EC"/>
</svg>
