<svg width="23" height="23" viewBox="0 0 23 23" fill="none" xmlns="http://www.w3.org/2000/svg">
<path d="M16.9673 1.50732H6.96729C4.20586 1.50732 1.96729 3.7459 1.96729 6.50732V16.5073C1.96729 19.2687 4.20586 21.5073 6.96729 21.5073H16.9673C19.7287 21.5073 21.9673 19.2687 21.9673 16.5073V6.50732C21.9673 3.7459 19.7287 1.50732 16.9673 1.50732Z" fill="white" stroke="black" stroke-width="2" stroke-linecap="round" stroke-linejoin="round"/>
<path d="M15.9675 10.8774C16.0909 11.7096 15.9487 12.5596 15.5612 13.3064C15.1737 14.0532 14.5606 14.6588 13.8091 15.0371C13.0576 15.4153 12.2059 15.547 11.3753 15.4133C10.5446 15.2796 9.77724 14.8875 9.18232 14.2925C8.5874 13.6976 8.19521 12.9303 8.06155 12.0996C7.92788 11.2689 8.05955 10.4173 8.43781 9.66576C8.81607 8.91424 9.42167 8.30112 10.1685 7.91362C10.9153 7.52612 11.7652 7.38397 12.5975 7.50738C13.4464 7.63327 14.2323 8.02885 14.8392 8.63569C15.446 9.24253 15.8416 10.0285 15.9675 10.8774Z" fill="white" stroke="black" stroke-width="2" stroke-linecap="round" stroke-linejoin="round"/>
<path d="M17.4673 6.00732H17.4773" stroke="black" stroke-width="2" stroke-linecap="round" stroke-linejoin="round"/>
</svg>
