<svg width="41" height="41" viewBox="0 0 41 41" fill="none" xmlns="http://www.w3.org/2000/svg">
<path d="M20.9695 0.472656C20.2525 0.472656 19.5361 0.5111 18.8231 0.587739C18.1697 0.654309 17.5243 0.763484 16.8876 0.895958C16.7644 0.92167 16.6411 0.948798 16.5178 0.977173C12.7663 1.8291 9.34065 3.74224 6.6518 6.48717C6.40177 6.74279 6.15698 7.006 5.91762 7.27669C-1.34574 15.5936 -0.474067 28.2086 7.86462 35.4531C15.8478 42.3887 27.8646 41.9272 35.2894 34.3999C35.54 34.1443 35.7847 33.8811 36.0236 33.6104C39.2291 29.9695 40.9955 25.2889 40.9927 20.4436C40.9927 9.41383 32.028 0.472573 20.9695 0.472656ZM7.54149 7.48571C7.64695 7.37654 7.75641 7.27203 7.86387 7.16618C7.98801 7.04436 8.11148 6.92187 8.2383 6.80404C8.34976 6.70019 8.46456 6.60033 8.57869 6.49915C8.7075 6.38531 8.83565 6.27148 8.9678 6.16164C9.08394 6.06378 9.20341 5.96992 9.32221 5.87539C9.4557 5.76888 9.58918 5.66236 9.72668 5.55985C9.84815 5.46865 9.97163 5.38011 10.0958 5.29357C10.2339 5.19504 10.3728 5.09386 10.5136 5.00199C10.6397 4.91678 10.7672 4.83423 10.8954 4.75235C11.0382 4.66115 11.1817 4.57128 11.3265 4.48607C11.4569 4.40844 11.5882 4.33205 11.7203 4.25707C11.8681 4.1732 12.0164 4.09131 12.1655 4.01143C12.299 3.94045 12.4325 3.87097 12.5659 3.80307C12.7181 3.72651 12.8716 3.65262 13.0258 3.58006C13.1593 3.51682 13.2981 3.45357 13.4356 3.39366C13.5925 3.32709 13.7513 3.26052 13.9102 3.19395C14.0483 3.13737 14.1858 3.08211 14.3253 3.02886C14.4868 2.96761 14.6503 2.91036 14.8139 2.85311C14.9534 2.80452 15.0929 2.75592 15.2344 2.70999C15.4005 2.65673 15.5681 2.60747 15.7363 2.55887C15.8771 2.51827 16.0166 2.47633 16.1581 2.43838C16.2121 2.4244 16.2662 2.41309 16.3203 2.39911C14.3447 4.31241 12.8786 6.68696 12.0547 9.30773C10.4705 8.89101 8.93693 8.30236 7.48143 7.55228C7.50345 7.52899 7.52214 7.50569 7.54149 7.48571ZM6.58172 8.55749C8.18498 9.4239 9.88511 10.0988 11.6469 10.5679C10.7832 13.5632 10.3299 16.6613 10.2993 19.7779H2.29679C2.44221 15.6681 3.94902 11.7223 6.58172 8.55749ZM6.58172 32.3296C3.94919 29.1647 2.44237 25.2189 2.29679 21.1093H10.2993C10.3299 24.2258 10.7831 27.3239 11.6469 30.3192C9.88519 30.7885 8.18507 31.4633 6.58172 32.3296ZM16.1541 38.4514C16.0193 38.4174 15.8798 38.3735 15.7409 38.3329C15.5721 38.2836 15.4025 38.2344 15.2357 38.1804C15.0949 38.1352 14.956 38.0866 14.8172 38.038C14.653 37.9814 14.4888 37.9235 14.3266 37.8616C14.1878 37.809 14.051 37.7537 13.9135 37.6978C13.754 37.6312 13.5945 37.5647 13.4363 37.4981C13.3001 37.4382 13.1646 37.3765 13.0298 37.313C12.8743 37.2398 12.7195 37.1653 12.5626 37.088C12.4291 37.0215 12.2956 36.9549 12.1621 36.8823C12.0113 36.8018 11.8618 36.7192 11.7123 36.634C11.5788 36.5601 11.452 36.4842 11.3232 36.407C11.1763 36.3191 11.0322 36.2286 10.888 36.1361C10.7612 36.0555 10.6344 35.9737 10.5096 35.8898C10.3674 35.7939 10.2266 35.6941 10.0871 35.5942C9.96495 35.507 9.84281 35.4198 9.72267 35.3279C9.58451 35.2241 9.44902 35.1169 9.3142 35.0091C9.19607 34.9152 9.0786 34.822 8.96313 34.7255C8.82964 34.615 8.70083 34.4998 8.57135 34.3853C8.45788 34.2848 8.34375 34.1856 8.23296 34.0831C8.10548 33.9646 7.982 33.8414 7.85786 33.7196C7.7504 33.6137 7.64094 33.5092 7.53549 33.4007C7.51613 33.3801 7.49744 33.3588 7.47809 33.3388C8.93351 32.5884 10.4671 31.9995 12.0514 31.5827C12.8754 34.2034 14.3414 36.5779 16.3169 38.4913C16.2629 38.4773 16.2081 38.466 16.1541 38.4514ZM20.3022 39.0305C17.4462 38.6258 14.9427 35.6528 13.3675 31.2625C15.6448 30.7539 17.9688 30.481 20.3022 30.4483V39.0305ZM20.3022 29.1169C17.8268 29.1494 15.3619 29.4426 12.9484 29.9917C12.1103 27.1036 11.6682 24.1156 11.6342 21.1093H20.3022V29.1169ZM20.3022 19.7779H11.6342C11.6682 16.7715 12.1103 13.7835 12.9484 10.8954C15.3619 11.4444 17.8269 11.7376 20.3022 11.7702V19.7779ZM20.3022 10.4388C17.9687 10.4063 15.6448 10.1335 13.3675 9.62461C14.9427 5.23432 17.4462 2.26131 20.3022 1.85656V10.4388ZM35.3575 8.55749C37.9901 11.7224 39.4969 15.6682 39.6425 19.7779H31.6399C31.6094 16.6613 31.1561 13.5632 30.2924 10.5679C32.0541 10.0985 33.7542 9.42373 35.3575 8.55749ZM25.7798 2.43505C25.92 2.46967 26.0595 2.51361 26.1983 2.55421C26.3672 2.60348 26.5367 2.65274 26.7036 2.70666C26.8444 2.75193 26.9832 2.80052 27.122 2.84912C27.2862 2.9057 27.4504 2.96362 27.6126 3.02553C27.7514 3.07812 27.8883 3.13337 28.0257 3.18929C28.1853 3.25586 28.3448 3.32243 28.503 3.389C28.6391 3.44891 28.7746 3.51058 28.9094 3.57407C29.0649 3.64729 29.2198 3.72185 29.3766 3.79907C29.5101 3.86564 29.6436 3.93221 29.7771 4.00477C29.9279 4.08532 30.0774 4.16787 30.2269 4.25308C30.3604 4.32697 30.4872 4.40286 30.6161 4.48008C30.7629 4.56796 30.9071 4.65849 31.0512 4.75102C31.178 4.83157 31.3049 4.91345 31.4297 4.99733C31.5718 5.09319 31.712 5.19238 31.8515 5.29224C31.9743 5.37944 32.0964 5.46731 32.2172 5.55852C32.3547 5.6617 32.4895 5.76888 32.625 5.87672C32.7425 5.96992 32.8606 6.06312 32.9761 6.16031C33.1096 6.27081 33.2384 6.38598 33.3679 6.50048C33.4814 6.601 33.5955 6.70019 33.7063 6.80271C33.8338 6.9212 33.9572 7.04436 34.0814 7.16618C34.1888 7.27203 34.2983 7.37654 34.4038 7.48505C34.4231 7.50569 34.4418 7.52699 34.4612 7.54696C33.0057 8.29737 31.4721 8.88626 29.8879 9.30307C29.0623 6.68205 27.5943 4.30775 25.617 2.39511C25.671 2.40909 25.7258 2.42041 25.7798 2.43505ZM21.6371 1.85656C24.493 2.26131 26.9966 5.23432 28.5717 9.62461C26.2944 10.1332 23.9705 10.4061 21.6371 10.4388V1.85656ZM21.6371 11.7702C24.1124 11.7377 26.5773 11.4445 28.9909 10.8954C29.8289 13.7835 30.271 16.7715 30.305 19.7779H21.6371V11.7702ZM21.6371 21.1093H30.305C30.2711 24.1156 29.829 27.1036 28.9909 29.9917C26.5773 29.4427 24.1124 29.1495 21.6371 29.1169V21.1093ZM21.6371 39.0305V30.4483C23.9706 30.4808 26.2944 30.7537 28.5717 31.2625C26.9966 35.6528 24.493 38.6258 21.6371 39.0305ZM34.3977 33.4014C34.2923 33.5099 34.1835 33.6144 34.076 33.7203C33.9519 33.8421 33.8278 33.9652 33.7003 34.0837C33.5895 34.1869 33.4754 34.2834 33.3619 34.3866C33.2324 34.5011 33.1036 34.6156 32.9714 34.7261C32.8546 34.8233 32.7358 34.9172 32.617 35.0117C32.4835 35.1182 32.3501 35.2247 32.2126 35.3273C32.0911 35.4185 31.9676 35.507 31.8435 35.5935C31.7053 35.6921 31.5665 35.7932 31.4257 35.8851C31.2995 35.9703 31.172 36.0529 31.0439 36.1341C30.9011 36.226 30.7571 36.3147 30.6121 36.4004C30.4786 36.4783 30.3511 36.5541 30.2196 36.6294C30.0718 36.7132 29.9233 36.7951 29.7738 36.875C29.6403 36.946 29.5068 37.0155 29.3733 37.0834C29.2211 37.1599 29.0676 37.2338 28.9134 37.3064C28.7799 37.3696 28.6411 37.4329 28.5036 37.4928C28.3468 37.5593 28.1879 37.6259 28.0291 37.6925C27.8909 37.7484 27.7534 37.8043 27.6146 37.8569C27.4517 37.9188 27.2882 37.9767 27.124 38.0333C26.9852 38.0819 26.8464 38.1305 26.7056 38.1758C26.5387 38.2297 26.3718 38.279 26.2016 38.3276C26.0622 38.3688 25.922 38.4101 25.7812 38.4481C25.7271 38.462 25.673 38.4734 25.619 38.4873C27.5946 36.574 29.0607 34.1995 29.8846 31.5787C31.4687 31.9954 33.0023 32.5841 34.4578 33.3342C34.4358 33.3581 34.4171 33.3814 34.3977 33.4014ZM35.3575 32.3296C33.7543 31.4632 32.0541 30.7884 30.2924 30.3192C31.156 27.3239 31.6094 24.2258 31.6399 21.1093H39.6425C39.4971 25.2189 37.9902 29.1648 35.3575 32.3296Z" fill="black"/>
</svg>
