<svg width="41" height="31" viewBox="0 0 41 31" fill="none" xmlns="http://www.w3.org/2000/svg">
<path d="M36.3613 0.718262H3.86135C1.79346 0.718262 0.111328 2.39602 0.111328 4.45853V26.9C0.111328 28.9625 1.79346 30.6403 3.86135 30.6403H36.3613C38.4292 30.6403 40.1113 28.9625 40.1113 26.9V4.45853C40.1113 2.39602 38.4292 0.718262 36.3613 0.718262ZM36.3613 3.21175C36.5311 3.21175 36.6927 3.24689 36.8404 3.30827L20.1113 17.7698L3.38216 3.30827C3.52987 3.24697 3.69144 3.21175 3.86127 3.21175H36.3613ZM36.3613 28.1467H3.86135C3.17167 28.1467 2.61132 27.5879 2.61132 26.8999V5.94266L19.2922 20.3618C19.5278 20.5651 19.8196 20.6662 20.1113 20.6662C20.4031 20.6662 20.6948 20.5652 20.9304 20.3618L37.6113 5.94266V26.9C37.6113 27.5879 37.051 28.1467 36.3613 28.1467Z" fill="black"/>
</svg>
