<svg width="41" height="40" viewBox="0 0 41 40" fill="none" xmlns="http://www.w3.org/2000/svg">
<path d="M38.6625 29.6218C38.4338 29.4463 38.1351 29.3901 37.8422 29.4677L34.5914 30.3292C34.0869 30.4628 33.7065 30.9632 33.7065 31.4932V35.5715C33.4443 35.4615 33.1519 35.3997 32.8435 35.3997C31.7215 35.3997 30.8086 36.2141 30.8086 37.2151C30.8086 38.2161 31.7215 39.0305 32.8435 39.0305C33.9655 39.0305 34.8784 38.2161 34.8784 37.2151C34.8784 37.1898 34.8784 33.5714 34.8784 33.5714L38.1431 32.7053C38.6475 32.5717 39.028 32.0713 39.028 31.5413V30.3913C39.028 30.0803 38.8948 29.8 38.6625 29.6218ZM32.8435 37.8616C32.3757 37.8616 31.9805 37.5655 31.9805 37.215C31.9805 36.8646 32.3757 36.5685 32.8435 36.5685C33.3113 36.5685 33.7065 36.8646 33.7065 37.215C33.7064 37.5655 33.3113 37.8616 32.8435 37.8616ZM37.8288 31.579L34.8783 32.3618L34.8779 31.4989C34.8802 31.4867 34.8941 31.4652 34.9056 31.4552L37.8561 30.6734L37.8564 31.5353C37.8542 31.5476 37.8403 31.5691 37.8288 31.579Z" fill="black"/>
<path d="M39.3084 11.3442C39.1616 11.0566 38.8087 10.9423 38.5204 11.0886C38.2321 11.235 38.1173 11.5869 38.2641 11.8745C40.3475 15.957 40.3475 22.5997 38.2641 26.6821C38.1173 26.9697 38.2321 27.3216 38.5204 27.468C38.6056 27.5113 38.6963 27.5317 38.7857 27.5317C38.9991 27.5317 39.2049 27.415 39.3083 27.2123C40.3947 25.0834 40.9931 22.2658 40.9931 19.2783C40.9931 16.2907 40.3948 13.4731 39.3084 11.3442Z" fill="black"/>
<path d="M36.6594 23.819C36.7446 23.8623 36.8353 23.8827 36.9247 23.8827C37.1381 23.8827 37.3439 23.7659 37.4474 23.5631C38.6735 21.1599 38.6735 17.3947 37.4474 14.9914C37.3006 14.7038 36.9478 14.5891 36.6594 14.7356C36.3711 14.882 36.2562 15.2339 36.4029 15.5215C37.4595 17.5925 37.4595 20.9621 36.4029 23.033C36.2562 23.3207 36.3711 23.6726 36.6594 23.819Z" fill="black"/>
<path d="M31.2217 9.07562C28.4902 6.35006 24.8576 4.84912 20.993 4.84912C17.1286 4.84912 13.4954 6.35006 10.7628 9.07562C5.12463 14.7015 5.12463 23.8556 10.7629 29.4817C13.1432 31.8547 16.2958 33.3331 19.64 33.6446C20.0878 33.6863 20.5359 33.7069 20.9833 33.7069C23.8327 33.7069 26.6406 32.8682 29.0105 31.2905C29.2797 31.1112 29.3523 30.7484 29.1726 30.4799C28.9928 30.2114 28.629 30.1392 28.3599 30.3183C23.1137 33.8112 16.0615 33.1116 11.5915 28.6552C6.41002 23.4849 6.41002 15.0723 11.5914 9.90206C14.1026 7.39733 17.4415 6.01795 20.9929 6.01795C24.5444 6.01795 27.8827 7.39725 30.3928 9.90206C35.5765 15.0724 35.5765 23.4848 30.3928 28.6551C30.164 28.8834 30.164 29.2533 30.3928 29.4816C30.6217 29.7097 30.9927 29.7097 31.2215 29.4816C36.8621 23.8557 36.8621 14.7015 31.2217 9.07562Z" fill="black"/>
<path d="M13.9338 12.0543C14.1655 11.829 14.1703 11.459 13.9444 11.2279C13.7185 10.9967 13.3475 10.9921 13.1159 11.2173C10.9182 13.3539 9.70776 16.2164 9.70776 19.2774C9.70776 25.4842 14.7704 30.5338 20.9932 30.5338C27.216 30.5338 32.2787 25.4842 32.2787 19.2774C32.2787 13.0706 27.2159 8.021 20.9932 8.021C19.0059 8.021 17.051 8.54424 15.3396 9.53417C15.0596 9.69609 14.9643 10.0538 15.1267 10.3329C15.2891 10.6121 15.6477 10.7073 15.9275 10.5454C17.4604 9.65853 19.2121 9.18983 20.9931 9.18983C26.5697 9.18983 31.1066 13.7151 31.1066 19.2775C31.1066 24.8398 26.5697 29.3651 20.9931 29.3651C15.4164 29.3651 10.8795 24.8398 10.8795 19.2775C10.8796 16.5343 11.9643 13.9691 13.9338 12.0543Z" fill="black"/>
<path d="M3.94586 4.30099L5.37508 5.02356L6.10016 6.45047C6.26321 6.76918 6.48938 6.93079 6.77243 6.93079H6.77407C6.96914 6.93032 7.24399 6.84632 7.44508 6.44899L8.16946 5.02356L9.59774 4.30138C9.9193 4.13946 10.0823 3.91356 10.0824 3.63008C10.0824 3.34644 9.91946 3.12055 9.5986 2.95894L8.16946 2.23644L7.44539 0.811632C7.28321 0.49145 7.05711 0.328748 6.77329 0.328125C6.77282 0.328125 6.77227 0.328125 6.7718 0.328125C6.57688 0.328125 6.30274 0.411502 6.0993 0.809061L5.375 2.23652L3.94656 2.95862C3.5475 3.15974 3.46328 3.43387 3.46289 3.62844C3.46235 3.91138 3.62445 4.13751 3.94586 4.30099ZM6.07594 3.19255C6.18719 3.13629 6.2775 3.04613 6.33383 2.93517L6.77196 2.07179L7.21086 2.93548C7.26719 3.04636 7.35743 3.13636 7.4686 3.19255L8.33391 3.63L7.46852 4.06753C7.35743 4.12372 7.26711 4.21372 7.21079 4.3246L6.77219 5.18767L6.33368 4.3246C6.27735 4.21372 6.18711 4.12372 6.07594 4.06753L5.21055 3.63L6.07594 3.19255Z" fill="black"/>
<path d="M31.811 5.42188H32.3942C32.7178 5.42188 32.9801 5.16048 32.9801 4.83789C32.9801 4.5153 32.7178 4.25391 32.3942 4.25391H31.811C31.4874 4.25391 31.2251 4.5153 31.2251 4.83789C31.2251 5.16048 31.4874 5.42188 31.811 5.42188Z" fill="black"/>
<path d="M35.0071 5.42188H35.5902C35.9139 5.42188 36.1761 5.16048 36.1761 4.83789C36.1761 4.5153 35.9139 4.25391 35.5902 4.25391H35.0071C34.6834 4.25391 34.4211 4.5153 34.4211 4.83789C34.4211 5.16048 34.6834 5.42188 35.0071 5.42188Z" fill="black"/>
<path d="M33.7007 7.30615C34.0244 7.30615 34.2866 7.04471 34.2866 6.72205V6.14075C34.2866 5.81809 34.0244 5.55664 33.7007 5.55664C33.377 5.55664 33.1147 5.81809 33.1147 6.14075V6.72205C33.1147 7.04463 33.3771 7.30615 33.7007 7.30615Z" fill="black"/>
<path d="M33.7007 4.11877C34.0244 4.11877 34.2866 3.85731 34.2866 3.53463V2.95329C34.2866 2.6306 34.0244 2.36914 33.7007 2.36914C33.377 2.36914 33.1147 2.6306 33.1147 2.95329V3.53463C33.1147 3.85731 33.3771 4.11877 33.7007 4.11877Z" fill="black"/>
<path d="M10.1753 33.1343H9.59228C9.26869 33.1343 9.00635 33.3957 9.00635 33.7183C9.00635 34.0409 9.26869 34.3022 9.59228 34.3022H10.1753C10.4989 34.3022 10.7613 34.0409 10.7613 33.7183C10.7613 33.3957 10.4989 33.1343 10.1753 33.1343Z" fill="black"/>
<path d="M6.9793 33.1343H6.39625C6.07265 33.1343 5.8103 33.3957 5.8103 33.7183C5.8103 34.0409 6.07265 34.3022 6.39625 34.3022H6.9793C7.3029 34.3022 7.56525 34.0409 7.56525 33.7183C7.56525 33.3957 7.3029 33.1343 6.9793 33.1343Z" fill="black"/>
<path d="M8.28564 31.2476C7.96205 31.2476 7.69971 31.509 7.69971 31.8317V32.415C7.69971 32.7377 7.96205 32.9991 8.28564 32.9991C8.60924 32.9991 8.87158 32.7377 8.87158 32.415V31.8317C8.87158 31.509 8.60924 31.2476 8.28564 31.2476Z" fill="black"/>
<path d="M8.28564 34.4375C7.96205 34.4375 7.69971 34.6989 7.69971 35.0216V35.6027C7.69971 35.9253 7.96205 36.1868 8.28564 36.1868C8.60924 36.1868 8.87158 35.9253 8.87158 35.6027V35.0216C8.87158 34.699 8.60924 34.4375 8.28564 34.4375Z" fill="black"/>
<path d="M23.4121 18.3789C22.2508 18.5926 21.3411 19.5019 21.3411 20.4491C21.3411 20.883 21.5277 21.277 21.8665 21.5582C22.1979 21.8335 22.6458 21.9787 23.1389 21.9787C23.297 21.9787 23.4599 21.9638 23.6251 21.9334C24.7851 21.7193 25.6937 20.81 25.6937 19.8632V14.8102C25.6937 14.7894 25.6926 14.7689 25.6904 14.7487C25.6741 14.4801 25.5529 14.2323 25.35 14.0621C25.1233 13.872 24.8161 13.7939 24.5056 13.8477L19.1454 14.7963C18.5931 14.8925 18.1604 15.3932 18.1604 15.9362V20.8594C17.8242 20.7624 17.443 20.7462 17.0486 20.819C15.8873 21.0327 14.9775 21.942 14.9775 22.8892C14.9775 23.3231 15.1642 23.7171 15.5029 23.9983C15.8344 24.2736 16.2823 24.4188 16.7754 24.4188C16.9334 24.4188 17.0963 24.4039 17.2613 24.3735C18.4226 24.1598 19.3324 23.2504 19.3324 22.3033V18.0462L24.5219 17.1277V18.419C24.1861 18.3222 23.8058 18.3062 23.4121 18.3789ZM23.4121 20.7841C23.0221 20.8558 22.7452 20.767 22.6161 20.66C22.5447 20.6007 22.5129 20.5357 22.5129 20.4492C22.5129 20.111 22.9884 19.6455 23.6247 19.5283H23.625C23.7228 19.5103 23.8134 19.5024 23.8964 19.5024C24.1431 19.5024 24.3219 19.5722 24.4183 19.6521C24.4899 19.7115 24.5218 19.7766 24.5218 19.8633C24.5218 20.2012 24.0471 20.6669 23.4121 20.7841ZM17.0486 23.2242C16.6582 23.2957 16.3814 23.2071 16.2526 23.1001C16.1812 23.0408 16.1494 22.9758 16.1494 22.8893C16.1494 22.5512 16.6249 22.0856 17.2612 21.9684C17.3594 21.9504 17.4504 21.9425 17.5337 21.9425C17.7814 21.9425 17.9607 22.0123 18.0572 22.0925C18.1286 22.1518 18.1604 22.2169 18.1604 22.3034C18.1604 22.6415 17.6849 23.107 17.0486 23.2242ZM19.3322 16.8592V15.9603C19.3373 15.9547 19.3443 15.9491 19.3484 15.9477L24.5218 15.0321V15.9407L19.3322 16.8592Z" fill="black"/>
<path d="M3.72231 11.8745C3.86911 11.5869 3.75434 11.235 3.4659 11.0886C3.17746 10.9423 2.82473 11.0566 2.67793 11.3443C1.59152 13.4731 0.993164 16.2909 0.993164 19.2783C0.993164 22.2658 1.59152 25.0835 2.67793 27.2124C2.78137 27.4151 2.98715 27.5319 3.20059 27.5319C3.29004 27.5319 3.38082 27.5113 3.4659 27.4681C3.75426 27.3217 3.86911 26.9698 3.72231 26.6822C1.63887 22.5997 1.63887 15.957 3.72231 11.8745Z" fill="black"/>
<path d="M5.32438 14.7353C5.03579 14.5892 4.68313 14.7041 4.53665 14.9917C3.31298 17.3949 3.31298 21.1597 4.53665 23.5627C4.64001 23.7656 4.84587 23.8826 5.05954 23.8826C5.14876 23.8826 5.23938 23.8621 5.32438 23.8191C5.6129 23.673 5.72806 23.3211 5.58149 23.0334C4.52681 20.9623 4.52681 17.5922 5.58149 15.5211C5.72798 15.2332 5.6129 14.8815 5.32438 14.7353Z" fill="black"/>
</svg>
