<svg width="41" height="41" viewBox="0 0 41 41" fill="none" xmlns="http://www.w3.org/2000/svg">
<path d="M21.8735 40.3663H18.1402C16.8785 40.3663 15.8135 39.4238 15.6635 38.172L15.2652 35.0535C14.4702 34.7958 13.7035 34.4783 12.9752 34.1076L10.4852 36.0376C9.47517 36.8172 8.0535 36.7275 7.17684 35.8282L4.55184 33.21C3.65684 32.3439 3.56684 30.9259 4.3485 29.9202L6.2835 27.435C5.91017 26.7086 5.59184 25.9439 5.33517 25.151L2.20184 24.7537C0.951836 24.6007 0.00683594 23.5385 0.00683594 22.2801V18.5565C0.00683594 17.2981 0.951836 16.2358 2.20684 16.0862L5.3335 15.6889C5.59184 14.896 5.91017 14.1313 6.28184 13.4049L4.3485 10.9213C3.56517 9.91396 3.65684 8.49432 4.56017 7.61993L7.18517 5.00175C8.0535 4.10907 9.47684 4.02097 10.4835 4.79894L12.9735 6.73058C13.7018 6.35988 14.4685 6.04237 15.2652 5.78471L15.6635 2.65951C15.8135 1.41276 16.8785 0.470215 18.1402 0.470215H21.8735C23.1352 0.470215 24.2002 1.41276 24.3502 2.6645L24.7485 5.78305C25.5452 6.04071 26.3118 6.35822 27.0402 6.72892L29.5302 4.79894C30.5418 4.01931 31.9618 4.10907 32.8385 5.01006L35.4635 7.62824C36.3585 8.49432 36.4485 9.9123 35.6668 10.918L33.7318 13.4032C34.1052 14.1296 34.4235 14.8943 34.6802 15.6873L37.8135 16.0846C39.0618 16.2358 40.0068 17.2981 40.0068 18.5565V22.2801C40.0068 23.5385 39.0618 24.6007 37.8068 24.7503L34.6802 25.1476C34.4218 25.9406 34.1035 26.7052 33.7318 27.4317L35.6668 29.9152C36.4502 30.9226 36.3585 32.3406 35.4552 33.215L32.8302 35.8331C31.9618 36.7258 30.5385 36.8172 29.5318 36.0359L27.0402 34.106C26.3118 34.4783 25.5452 34.7958 24.7502 35.0518L24.3518 38.177C24.2002 39.4238 23.1352 40.3663 21.8735 40.3663ZM12.8902 32.2874C13.0285 32.2874 13.1702 32.3223 13.2968 32.3921C14.2152 32.9041 15.2102 33.3164 16.2535 33.6156C16.5735 33.707 16.8085 33.9796 16.8502 34.3088L17.3168 37.9659C17.3668 38.3832 17.7285 38.704 18.1402 38.704H21.8735C22.2852 38.704 22.6468 38.3832 22.6952 37.9742L23.1635 34.3104C23.2052 33.9813 23.4402 33.7087 23.7602 33.6172C24.8035 33.318 25.7985 32.9058 26.7168 32.3938C27.0085 32.2309 27.3718 32.2591 27.6335 32.4636L30.5502 34.7244C30.8852 34.9837 31.3552 34.9621 31.6418 34.6678L34.2835 32.033C34.5852 31.7405 34.6085 31.2717 34.3485 30.9359L32.0818 28.0268C31.8768 27.7641 31.8485 27.4034 32.0118 27.1125C32.5252 26.1966 32.9385 25.2041 33.2385 24.1635C33.3302 23.8444 33.6035 23.61 33.9335 23.5684L37.6002 23.1029C38.0185 23.0514 38.3402 22.6907 38.3402 22.2801V18.5565C38.3402 18.1459 38.0185 17.7851 37.6085 17.7369L33.9352 17.2698C33.6052 17.2282 33.3318 16.9939 33.2402 16.6747C32.9402 15.6341 32.5268 14.6416 32.0135 13.7257C31.8502 13.4348 31.8768 13.0741 32.0835 12.8114L34.3502 9.90232C34.6118 9.56653 34.5885 9.09775 34.2952 8.81515L31.6535 6.18035C31.3618 5.8778 30.8902 5.85453 30.5535 6.11552L27.6368 8.3763C27.3718 8.58076 27.0102 8.60902 26.7185 8.44611C25.8035 7.93411 24.8085 7.52352 23.7618 7.22263C23.4418 7.1312 23.2068 6.85858 23.1652 6.52944L22.6985 2.87229C22.6468 2.45338 22.2852 2.13255 21.8735 2.13255H18.1402C17.7285 2.13255 17.3668 2.45338 17.3185 2.86232L16.8502 6.52611C16.8085 6.85526 16.5735 7.12788 16.2535 7.22097C15.2068 7.52019 14.2118 7.93245 13.2968 8.44279C13.0052 8.60736 12.6435 8.57744 12.3785 8.37463L9.46184 6.11385C9.12517 5.85287 8.65684 5.87614 8.37184 6.16871L5.73017 8.80518C5.4285 9.09775 5.40517 9.56653 5.66517 9.90232L7.93184 12.8114C8.13684 13.0741 8.16517 13.4348 8.00184 13.7257C7.48684 14.6416 7.07517 15.6341 6.77517 16.6747C6.6835 16.9939 6.41017 17.2282 6.08017 17.2698L2.4135 17.7353C1.99517 17.7851 1.6735 18.1459 1.6735 18.5565V22.2801C1.6735 22.6907 1.99517 23.0514 2.40517 23.0996L6.0785 23.5667C6.4085 23.6083 6.68184 23.8427 6.7735 24.1619C7.0735 25.2025 7.48684 26.1949 8.00017 27.1108C8.1635 27.4018 8.13684 27.7625 7.93017 28.0251L5.6635 30.9342C5.40184 31.27 5.42517 31.7388 5.7185 32.0214L8.36017 34.6562C8.65184 34.9571 9.12017 34.9804 9.46017 34.721L12.3768 32.4603C12.5285 32.3472 12.7085 32.2874 12.8902 32.2874Z" fill="black"/>
<path d="M20.0068 28.73C15.4118 28.73 11.6735 25.0013 11.6735 20.4182C11.6735 15.8351 15.4118 12.1064 20.0068 12.1064C24.6019 12.1064 28.3402 15.8351 28.3402 20.4182C28.3402 25.0013 24.6019 28.73 20.0068 28.73ZM20.0068 13.7688C16.3302 13.7688 13.3401 16.7511 13.3401 20.4182C13.3401 24.0854 16.3302 27.0676 20.0068 27.0676C23.6835 27.0676 26.6735 24.0854 26.6735 20.4182C26.6735 16.7511 23.6835 13.7688 20.0068 13.7688Z" fill="black"/>
</svg>
