<svg width="23" height="19" viewBox="0 0 23 19" fill="none" xmlns="http://www.w3.org/2000/svg">
<path d="M22.0498 0.517868C21.0922 1.19335 20.0319 1.70998 18.9098 2.04787C18.3075 1.35538 17.5071 0.86456 16.6168 0.641794C15.7265 0.419029 14.7893 0.475064 13.9319 0.802322C13.0745 1.12958 12.3382 1.71227 11.8228 2.47158C11.3073 3.2309 11.0375 4.1302 11.0498 5.04787V6.04787C9.29244 6.09344 7.55108 5.70368 5.98081 4.91331C4.41055 4.12295 3.06012 2.9565 2.0498 1.51787C2.0498 1.51787 -1.9502 10.5179 7.0498 14.5179C4.99033 15.9158 2.53696 16.6168 0.0498047 16.5179C9.0498 21.5179 20.0498 16.5179 20.0498 5.01787C20.0489 4.73932 20.0221 4.46146 19.9698 4.18787C20.9904 3.18136 21.7106 1.91058 22.0498 0.517868Z" fill="#1F1B1B"/>
</svg>
